<?xml version="1.0" standalone="no"?>
<svg viewBox="0 0 200 200" xmlns="http://www.w3.org/2000/svg">
  <path fill="#E8DAFF" d="M38.6,-49C50.6,-52.4,61.4,-42.7,71.3,-29.9C81.1,-17.2,90,-1.5,81.2,6.8C72.4,15.1,45.8,15.9,32.2,23.1C18.5,30.3,17.7,43.9,10.4,55.1C3.1,66.2,-10.7,74.8,-16.9,68.1C-23,61.4,-21.5,39.4,-25.4,26.6C-29.3,13.9,-38.7,10.4,-42.5,4.2C-46.4,-2,-44.7,-10.8,-42.4,-20.8C-40.1,-30.8,-37.1,-42,-29.9,-40.8C-22.8,-39.7,-11.4,-26.3,1,-27.8C13.3,-29.3,26.6,-45.7,38.6,-49Z" transform="translate(100 100)" />
</svg>
